#!OML:ASF F:\VICON\USERDATA\INSTALL\rory3\rory3.ASF
:FULLY-SPECIFIED
:DEGREES
28
root -0.3399083323693861 17.769364865474916 -1.4162944463904594 5.454283610089464 1.3723737676203092 1.275733821774335
lfemur 2.4329216442773642 -0.6489174964667194 -26.180412042083
ltibia 34.179373601056376
lfoot -5.621144105157446 -4.74737340838439
ltoes -28.074608080529583
rfemur -47.6355713495481 -1.2484627405525512 21.851978602328796
rtibia 93.7419659582039
rfoot -0.3188026787199565 -4.609218546011656
rtoes 0.2651185372254128
lowerback 16.107095581765996 -0.8072649206081081 -3.025677868104064
upperback -1.0068378008241787 -1.5405089717389884 0.7879107158820549
thorax -10.083055798626273 -0.5546511540714473 3.0289982980356265
lowerneck -20.051627831144337 -3.536059882698346 -1.720474504092561
upperneck 13.119362895746699 -5.0467746375212394 3.786819357155693
head 7.489820805951279 -2.0923123145721862 0.9330468135822599
lclavicle -1.0570717735131371e-15 -8.844645290415727e-16
lhumerus -32.61416448479852 -13.964063953125375 95.06014207242524
lradius 115.26986855728089
lwrist 38.7873650837567
lhand -23.873399131987924 3.5414765694204196
lfingers 7.125020000000057
lthumb 2.598619691979957 33.41685006745183
rclavicle -1.0570717735131371e-15 -8.844645290415727e-16
rhumerus -60.217178427184045 9.369378117999865 -99.14407127849407
rradius 108.10896223903534
rwrist -18.175118931706436
rhand -19.461629672971984 34.553524085267085
rfingers 7.125020000000057
rthumb 6.857893865750768 10.905592677293779
29
root -0.3292879692108796 18.001849757730447 -1.0962892391184216 5.737991215486913 0.13432191064571686 0.7400889968978612
lfemur 6.274712404363793 -0.16747838745992705 -25.797865743731148
ltibia 30.431356501730228
lfoot 3.5793583586739754 -8.06248410864443
ltoes -29.959331128467706
rfemur -47.407803965573976 0.5759456749782581 22.794745152569483
rtibia 83.85600811340231
rfoot -1.0313204278358683 -3.043935147338015
rtoes -2.4852214073872902
lowerback 15.391017340862936 -0.9456080380072632 -2.681706410163109
upperback -1.200595334661271 -1.6240446346746271 1.1809458283034884
thorax -9.905704828452958 -0.6017199896130693 3.2768061997455793
lowerneck -20.056216823471118 -3.3274045116329347 -1.7276280146040095
upperneck 13.634107566961255 -4.735961213345487 3.590521484836449
head 7.645489838469403 -1.9597910598104282 0.9004800620057748
lclavicle -8.67398849910595e-16 -7.376002442401842e-16
lhumerus -32.847493117157484 -13.326760006653904 94.41103949547822
lradius 116.34759114988015
lwrist 39.148241047900314
lhand -23.870142213796186 3.371568382660824
lfingers 7.125020000000057
lthumb 2.601754081677665 33.24577321133037
rclavicle -8.67398849910595e-16 -7.376002442401842e-16
rhumerus -61.879131012055595 9.287107985411378 -98.58809037764851
rradius 109.01087830368354
rwrist -18.058548811516886
rhand -19.401969317157945 34.84931261165724
rfingers 7.125020000000057
rthumb 6.9155505821173415 10.948201551306894
30
root -0.321177542759267 18.22122091349269 -0.9370815259699228 5.985513400208186 -1.2079306971311372 0.27088800374448496
lfemur 9.190150023731302 -0.38620660274963214 -25.9288778907729
ltibia 26.193620868014715
lfoot 12.79101360529005 -11.00515602812785
ltoes -28.556214475012275
rfemur -46.986871428536716 2.043790742258861 23.33253289768712
rtibia 71.86732027872472
rfoot -1.7850791707395235 -1.7231749361386255
rtoes -6.294438871543379
lowerback 14.593157971314488 -1.0757173468596042 -2.514233083106223
upperback -1.4235096847830269 -1.7291578022119931 1.427262636651702
thorax -9.784295971231616 -0.657169876730549 3.3740644219419136
lowerneck -20.059278152591496 -3.194598949195253 -1.8062268716949155
upperneck 14.130595431350326 -4.525579624186525 3.3688418976570094
head 7.798945373762114 -1.8757758252061787 0.8629189686587693
lclavicle -1.2029099556160612e-15 -9.973874170436687e-16
lhumerus -33.734272550223466 -13.603586589806469 93.88273143745884
lradius 116.6239830522396
lwrist 38.77286775446244
lhand -23.966762415384103 2.8122104753685733
lfingers 7.125020000000056
lthumb 2.508475966133643 32.68696790368719
rclavicle -1.2029099556160612e-15 -9.973874170436687e-16
rhumerus -63.65733334794847 8.833013664215978 -98.38480372611855
rradius 108.97497663070365
rwrist -17.803045407180846
rhand -19.556312129422388 34.23083827785101
rfingers 7.125020000000056
rthumb 6.766496340466475 10.948770583550354
31
root -0.2897469147515596 18.411334959617708 0.5444773556524076 6.272160443333402 -2.05346327126206 0.09709822173955551
lfemur 11.202532149548407 -1.2041080187446556 -26.33672355813264
ltibia 24.31139411083754
lfoot 20.679160561014378 -13.740895186917598
ltoes -25.28475438684255
rfemur -45.553422161400945 2.970501753655213 23.835080892635233
rtibia 60.589272789668904
rfoot -1.3754204903889247 -0.27991716115133247
rtoes -10.424510730267476
lowerback 14.052238338749136 -1.1781204104947243 -2.2024284411711097
upperback -1.6449879592345324 -1.791855554576788 1.5456967803463644
thorax -9.748369428101224 -0.6982348252874663 3.3198777247028053
lowerneck -20.11599404783119 -3.1026159948950944 -1.8277564740527639
upperneck 14.62742096450912 -4.364810273131833 3.136107010261565
head 7.966326724234301 -1.818939792295187 0.8033811132816544
lclavicle -1.1747808954967167e-15 -9.75606959978944e-16
lhumerus -34.688824467802114 -13.902683157824972 93.69685801740629
lradius 118.17193511794807
lwrist 38.506029280865214
lhand -23.789065299801706 2.188101645244503
lfingers 7.125020000000056
lthumb 2.6801097355789834 32.06482181049192
rclavicle -1.1747808954967167e-15 -9.75606959978944e-16
rhumerus -64.85235368163937 8.753067939415429 -98.16196397561751
rradius 110.63107634280831
rwrist -17.45992337897816
rhand -19.73913807554328 33.669451011653706
rfingers 7.125020000000056
rthumb 6.5899207752282 11.51191938140125
32
root -0.28628701969352893 18.559336573502012 1.0684529319476024 6.513455776232346 -2.6690353290231554 0.13184554575459462
lfemur 12.873419774831046 -2.6287992645019025 -26.95181902678933
ltibia 22.899410350995044
lfoot 26.328952309318364 -15.97562941304204
ltoes -21.848895882871282
rfemur -44.0749202312555 3.2820134871512594 24.13211746006526
rtibia 49.26240150835643
rfoot -0.36347650356292505 0.5196224154888665
rtoes -14.076721607177324
lowerback 13.567102462697477 -1.344109591497427 -1.9621421450157361
upperback -1.8089474767244331 -1.964001056325925 1.609857527792264
thorax -9.683439188480223 -0.7905409458937275 3.233922309500951
lowerneck -20.262555821609528 -3.0607648475702454 -1.8500479013839146
upperneck 14.826443047094186 -4.262965013739397 2.8804973280387673
head 8.049957777370308 -1.7915868725646877 0.7312805790982086
lclavicle -1.3708677941564607e-15 -1.1274374634185557e-15
lhumerus -35.58525511640206 -14.633585050529458 93.41619093900927
lradius 118.15542480218612
lwrist 37.724843067345276
lhand -23.595080006759076 2.018826712622536
lfingers 7.125020000000056
lthumb 2.8675257800735334 31.900898893526417
rclavicle -1.3708677941564607e-15 -1.1274374634185557e-15
rhumerus -65.98955254167811 7.943936421035977 -97.7536973786206
rradius 111.27835463991335
rwrist -17.192114266902973
rhand -19.90653297274509 33.4680025044868
rfingers 7.125020000000056
rthumb 6.428417843742173 11.616376011453609
33
root -0.2790003396202968 18.64310858996555 1.7998150982886987 6.58872054083988 -2.941258340695432 0.4957589289070148
lfemur 13.880392247506318 -4.34739712183186 -27.671143124561794
ltibia 23.901874843167636
lfoot 29.887867272943065 -17.63467109812583
ltoes -18.01635162273003
rfemur -42.25360238295054 2.9310039740267166 24.175303258694935
rtibia 39.5182379679556
rfoot 1.4848919583565494 0.33456987636540525
rtoes -16.865564171181774
lowerback 13.343953356820586 -1.5050583657025083 -1.9423321539372556
upperback -1.8727564657535043 -2.181215190213837 1.526456733765536
thorax -9.615152294505808 -0.8985805850205099 3.1782137418171903
lowerneck -20.359042864474592 -3.0705427850801077 -1.8926430910652583
upperneck 14.825393880825995 -4.237781245931009 2.761793964820156
head 8.063636779737935 -1.7945901100397479 0.6998179746384587
lclavicle -1.3419170698814268e-15 -1.105020738854945e-15
lhumerus -36.00782004095829 -15.135075359762615 93.26124663253508
lradius 118.25548404921349
lwrist 37.27047408369992
lhand -23.64579022628854 1.6175147858565087
lfingers 7.125020000000056
lthumb 2.818625321525265 31.503155991875424
rclavicle -1.3419170698814268e-15 -1.105020738854945e-15
rhumerus -66.59492257383594 7.186263471288264 -97.19999351324037
rradius 112.31094226871005
rwrist -16.612985676669282
rhand -20.061839429840383 33.54210868662597
rfingers 7.125020000000056
rthumb 6.278710193281149 11.725428634573339
34
root -0.27154083097188014 18.678719674169034 2.728534542337358 6.500800516022499 -2.8384872868674216 1.0467294337783564
lfemur 14.111474364299156 -5.88283362200317 -28.6906586988431
ltibia 26.826417149091498
lfoot 30.287971973833148 -19.33474075719189
ltoes -15.774094883689848
rfemur -40.70068864478641 2.178396064791829 24.04334340179381
rtibia 31.523608533404005
rfoot 3.4842082238881464 -0.48726454116202333
rtoes -19.17179812066867
lowerback 13.264665993080968 -1.7297937840051079 -2.1417405395249984
upperback -1.8101052629847665 -2.5294552017827026 1.3451940138780891
thorax -9.491202453257955 -1.0633444646924821 3.148194233778545
lowerneck -20.516302343031946 -3.112179573578106 -1.97110914161046
upperneck 14.513578266247166 -4.252587737521005 2.7167255709089364
head 7.989637916106732 -1.8107031772854507 0.695356383329189
lclavicle -1.4981638567380144e-15 -1.2260029333195193e-15
lhumerus -36.4535757607197 -15.997104390719251 93.26513196307613
lradius 118.060350876368
lwrist 36.89183294293396
lhand -23.870709205594807 0.8986245839148523
lfingers 7.125020000000055
lthumb 2.601516131057698 30.79397742840019
rclavicle -1.4981638567380144e-15 -1.2260029333195193e-15
rhumerus -67.1768269901824 6.1346705171357705 -96.8660623390271
rradius 112.8307247341973
rwrist -16.40323802801218
rhand -20.049152889433213 33.33244838541057
rfingers 7.125020000000055
rthumb 6.2908548554336186 11.999922972308669
